<svg width="64" height="62" viewBox="0 0 64 62" fill="none" xmlns="http://www.w3.org/2000/svg">
<path d="M37.3582 30.9534C37.3582 28.1742 34.9596 25.9209 32.0004 25.9209C29.0416 25.9209 26.6426 28.1742 26.6426 30.9534C26.6426 33.7329 29.0416 35.986 32.0004 35.986C34.9596 35.986 37.3582 33.7329 37.3582 30.9534Z" fill="#53C1DE"/>
<path fill-rule="evenodd" clip-rule="evenodd" d="M49.4008 21.6103C50.5322 17.2918 51.9544 9.28349 46.9408 6.56843C41.9506 3.86521 35.4568 9.04508 32.0278 12.1543C28.6088 9.07606 21.9326 3.91834 16.9233 6.64202C11.935 9.35431 13.4733 17.2298 14.6298 21.5754C9.97662 22.8168 2 25.4905 2 30.9533C2 36.4006 9.96832 39.3095 14.594 40.5497C13.4332 44.9194 11.9719 52.6824 16.9665 55.3887C21.9946 58.1118 28.65 53.0768 32.1108 49.9336C35.5618 53.0611 41.9932 58.1291 46.9844 55.4152C51.9912 52.6928 50.6872 44.7919 49.5306 40.4211C54.0146 39.1782 62 36.3326 62 30.9533C62 25.543 53.9806 22.8476 49.4008 21.6103ZM48.8324 38.1048C48.073 35.8468 47.048 33.4457 45.7942 30.9653C46.991 28.5434 47.9762 26.1733 48.7144 23.9299C52.0718 24.8442 59.437 26.9338 59.437 30.9533C59.437 35.0106 52.3692 37.12 48.8324 38.1048ZM45.7 53.3316C41.976 55.3563 36.4442 50.5098 33.8956 48.2067C35.5864 46.4698 37.276 44.4505 38.925 42.2082C41.8258 41.9666 44.566 41.5714 47.0512 41.0318C47.8652 44.1235 49.4404 51.2978 45.7 53.3316ZM18.2472 53.3028C14.5229 51.2856 16.2252 44.3583 17.0791 41.1395C19.5367 41.6502 22.2572 42.0176 25.1648 42.239C26.8246 44.4331 28.5632 46.4498 30.3152 48.216C28.1506 50.1828 21.989 55.3292 18.2472 53.3028ZM4.56298 30.9533C4.56298 26.8809 11.8841 24.8064 15.3181 23.8944C16.069 26.1882 17.0539 28.5866 18.2425 31.012C17.0385 33.4734 16.0395 35.9098 15.2817 38.2307C12.0074 37.3503 4.56298 35.0283 4.56298 30.9533ZM18.2074 8.72561C21.947 6.69243 27.7494 11.644 30.2318 13.8727C28.4888 15.6309 26.7662 17.6324 25.1206 19.8138C22.2988 20.0595 19.5975 20.454 17.1142 20.9825C16.1825 17.4776 14.4718 10.7566 18.2074 8.72561ZM40.7586 22.4306C42.673 22.6575 44.5072 22.9594 46.2294 23.3287C45.7124 24.8852 45.068 26.5129 44.309 28.1815C43.2088 26.2208 42.0278 24.2993 40.7586 22.4306ZM32.0286 15.5932C33.2108 16.7961 34.3948 18.1395 35.5596 19.5968C33.197 19.4918 30.8306 19.4914 28.468 19.5953C29.6338 18.1514 30.828 16.8101 32.0286 15.5932ZM19.713 28.1798C18.9666 26.517 18.328 24.8821 17.8064 23.3033C19.5184 22.9435 21.344 22.6494 23.246 22.4262C21.9732 24.2908 20.7942 26.2115 19.713 28.1798ZM23.3006 39.6523C21.3358 39.4463 19.4825 39.1671 17.7711 38.8172C18.3009 37.2107 18.9536 35.5405 19.7159 33.8419C20.812 35.8308 22.009 37.77 23.3006 39.6523ZM32.0996 46.4835C30.8848 45.2522 29.673 43.8904 28.4896 42.4256C30.8656 42.5132 33.2462 42.5134 35.622 42.4138C34.4536 43.9053 33.2738 45.2691 32.0996 46.4835ZM44.3334 33.7555C45.1354 35.4725 45.8114 37.1335 46.3484 38.713C44.6086 39.086 42.7304 39.3863 40.7514 39.6093C42.03 37.7051 43.2298 35.7538 44.3334 33.7555ZM37.4946 39.9011C33.8602 40.145 30.2032 40.1423 26.5676 39.921C24.5018 37.0867 22.6628 34.1058 21.0754 31.0112C22.6552 27.9231 24.4808 24.948 26.5368 22.1181C30.175 21.8598 33.8356 21.8591 37.4738 22.1197C39.5122 24.9494 41.335 27.9167 42.9514 30.9769C41.3542 34.0636 39.519 37.0446 37.4946 39.9011ZM45.6606 8.65404C49.4012 10.6805 47.7362 17.8778 46.919 21.0075C44.4298 20.4679 41.7266 20.0665 38.8966 19.8169C37.2478 17.6119 35.5396 15.6069 33.8248 13.8715C36.339 11.5948 41.9562 6.64735 45.6606 8.65404Z" fill="#53C1DE"/>
</svg>
