<svg width="32" height="33" viewBox="0 0 32 33" fill="none" xmlns="http://www.w3.org/2000/svg">
<path d="M16 2.84537C8.265 2.84537 2 9.11037 2 16.8454C2 23.0404 6.0075 28.2729 11.5725 30.1279C12.2725 30.2504 12.535 29.8304 12.535 29.4629C12.535 29.1304 12.5175 28.0279 12.5175 26.8554C9 27.5029 8.09 25.9979 7.81 25.2104C7.6525 24.8079 6.97 23.5654 6.375 23.2329C5.885 22.9704 5.185 22.3229 6.3575 22.3054C7.46 22.2879 8.2475 23.3204 8.51 23.7404C9.77 25.8579 11.7825 25.2629 12.5875 24.8954C12.71 23.9854 13.0775 23.3729 13.48 23.0229C10.365 22.6729 7.11 21.4654 7.11 16.1104C7.11 14.5879 7.6525 13.3279 8.545 12.3479C8.405 11.9979 7.915 10.5629 8.685 8.63787C8.685 8.63787 9.8575 8.27037 12.535 10.0729C13.655 9.75787 14.845 9.60037 16.035 9.60037C17.225 9.60037 18.415 9.75787 19.535 10.0729C22.2125 8.25287 23.385 8.63787 23.385 8.63787C24.155 10.5629 23.665 11.9979 23.525 12.3479C24.4175 13.3279 24.96 14.5704 24.96 16.1104C24.96 21.4829 21.6875 22.6729 18.5725 23.0229C19.08 23.4604 19.5175 24.3004 19.5175 25.6129C19.5175 27.4854 19.5 28.9904 19.5 29.4629C19.5 29.8304 19.7625 30.2679 20.4625 30.1279C23.2418 29.1897 25.6568 27.4035 27.3677 25.0207C29.0786 22.638 29.9993 19.7788 30 16.8454C30 9.11037 23.735 2.84537 16 2.84537Z" fill="#EFEFEF"/>
</svg>
