<svg width="64" height="62" viewBox="0 0 64 62" fill="none" xmlns="http://www.w3.org/2000/svg">
<path d="M60 3.875H4V58.125H60V3.875Z" fill="#FFCA28"/>
<path d="M38 48.9949L42.123 46.3519C42.4462 47.3352 44.4924 49.6709 47.077 49.6709C49.6616 49.6709 50.8616 48.3034 50.8616 47.3968C50.8616 44.9261 48.2224 44.055 46.9548 43.6365C46.748 43.5683 46.578 43.5121 46.4616 43.4631C46.4018 43.4379 46.3116 43.4044 46.1958 43.3616C44.786 42.8398 39.5846 40.9147 39.5846 35.3345C39.5846 29.188 45.7076 28.4812 47.0924 28.4812C47.9982 28.4812 52.3538 28.5887 54.523 32.5379L50.523 35.2423C49.6462 33.5212 48.1892 32.9528 47.2924 32.9528C45.077 32.9528 44.6154 34.5262 44.6154 35.2423C44.6154 37.2519 47.0224 38.1526 49.0546 38.9131C49.5864 39.1121 50.0924 39.3016 50.523 39.4986C52.7384 40.5129 56 42.1724 56 47.3968C56 50.0134 53.7344 54.25 48.0308 54.25C40.3692 54.25 38.3384 49.7939 38 48.9949Z" fill="#3E3E3E"/>
<path d="M18 49.5198L22.2974 46.878C22.634 47.8611 23.9426 49.6732 25.841 49.6732C27.7396 49.6732 28.7114 47.7842 28.7114 46.878V29.0625H33.9964V46.878C34.082 49.3353 32.6752 54.25 26.4664 54.25C20.758 54.25 18.3848 50.9634 18 49.5198Z" fill="#3E3E3E"/>
</svg>
