<svg width="24" height="24" viewBox="0 0 24 24" fill="none" xmlns="http://www.w3.org/2000/svg">
<path fill-rule="evenodd" clip-rule="evenodd" d="M12 12C12 10.2137 13.511 8.76562 15.375 8.76562C17.239 8.76562 18.75 10.2137 18.75 12C18.75 13.7863 17.239 15.2344 15.375 15.2344C13.511 15.2344 12 13.7863 12 12Z" fill="#1ABCFE"/>
<path fill-rule="evenodd" clip-rule="evenodd" d="M5.25 18.4688C5.25 16.6824 6.76104 15.2344 8.625 15.2344H12V18.4688C12 20.2551 10.489 21.7031 8.625 21.7031C6.76104 21.7031 5.25 20.2551 5.25 18.4688Z" fill="#0ACF83"/>
<path fill-rule="evenodd" clip-rule="evenodd" d="M12 2.29688V8.76562H15.375C17.239 8.76562 18.75 7.31754 18.75 5.53125C18.75 3.74495 17.239 2.29688 15.375 2.29688H12Z" fill="#FF7262"/>
<path fill-rule="evenodd" clip-rule="evenodd" d="M5.25 5.53125C5.25 7.31754 6.76104 8.76562 8.625 8.76562H12V2.29688H8.625C6.76104 2.29688 5.25 3.74495 5.25 5.53125Z" fill="#F24E1E"/>
<path fill-rule="evenodd" clip-rule="evenodd" d="M5.25 12C5.25 13.7863 6.76104 15.2344 8.625 15.2344H12V8.76562H8.625C6.76104 8.76562 5.25 10.2137 5.25 12Z" fill="#A259FF"/>
</svg>
