<svg width="32" height="33" viewBox="0 0 32 33" fill="none" xmlns="http://www.w3.org/2000/svg">
<path d="M30 16.5C30 8.76801 23.732 2.5 16 2.5C8.26801 2.5 2 8.76801 2 16.5C2 24.232 8.26801 30.5 16 30.5C23.732 30.5 30 24.232 30 16.5Z" fill="#1275B1"/>
<path d="M12.6186 10.1922C12.6186 11.1267 11.8085 11.8843 10.8093 11.8843C9.81004 11.8843 9 11.1267 9 10.1922C9 9.2576 9.81004 8.5 10.8093 8.5C11.8085 8.5 12.6186 9.2576 12.6186 10.1922Z" fill="white"/>
<path d="M9.24707 13.1281H12.3399V22.5H9.24707V13.1281Z" fill="white"/>
<path d="M17.3194 13.1281H14.2266V22.5H17.3194C17.3194 22.5 17.3194 19.5496 17.3194 17.7049C17.3194 16.5976 17.6975 15.4855 19.206 15.4855C20.9108 15.4855 20.9006 16.9345 20.8926 18.0571C20.8822 19.5244 20.907 21.0219 20.907 22.5H23.9998V17.5537C23.9736 14.3954 23.1506 12.9401 20.4431 12.9401C18.8352 12.9401 17.8385 13.6701 17.3194 14.3305V13.1281Z" fill="white"/>
</svg>
