<svg width="60" height="62" viewBox="0 0 60 62" fill="none" xmlns="http://www.w3.org/2000/svg">
<path d="M11.0667 52.7019L6.85547 3.875H53.1455L48.9286 52.6942L29.9723 58.125L11.0667 52.7019Z" fill="#1572B6"/>
<path d="M30 53.9749L45.3188 49.5864L48.9225 7.86816H30V53.9749Z" fill="#33A9DC"/>
<path d="M30 25.5575H37.6688L38.1975 19.4253H30V13.4365H30.0206H44.5312L44.3925 15.0427L42.9694 31.5463H30V25.5575Z" fill="white"/>
<path d="M30.0358 41.1099L30.0096 41.1176L23.5558 39.3157L23.1433 34.5398H20.0064H17.3252L18.1371 43.9425L30.0077 47.3486L30.0358 47.3409V41.1099Z" fill="#EBEBEB"/>
<path d="M37.1753 31.2925L36.4778 39.3118L30.0146 41.1137V47.3447L41.8946 43.9424L41.9828 42.931L42.9896 31.2925H37.1753Z" fill="white"/>
<path d="M30.0211 13.4365V17.1565V19.4098V19.4253H16.0411H16.0223L15.9061 18.0788L15.6417 15.0427L15.5029 13.4365H30.0211Z" fill="#EBEBEB"/>
<path d="M30 25.5576V29.2776V31.5309V31.5464H23.6456H23.6269L23.5106 30.1999L23.2481 27.1638L23.1094 25.5576H30Z" fill="#EBEBEB"/>
</svg>
