<svg width="64" height="62" viewBox="0 0 64 62" fill="none" xmlns="http://www.w3.org/2000/svg">
<mask id="mask0_262_1347" style="mask-type:alpha" maskUnits="userSpaceOnUse" x="6" y="1" width="54" height="60">
<path d="M59.4291 1.47632H6.0957V60.524H59.4291V1.47632Z" fill="white"/>
</mask>
<g mask="url(#mask0_262_1347)">
<path d="M45.0655 28.1156L40.9395 27.2276L44.1487 31.6674V45.431L55.1519 36.5513V21.4558L50.1087 23.2317L45.0655 28.1156Z" fill="#41B883"/>
<path d="M19.391 28.1156L23.517 27.2276L20.3078 31.6674V45.431L9.30469 36.5513V21.4558L14.3478 23.2317L19.391 28.1156Z" fill="#41B883"/>
<path fill-rule="evenodd" clip-rule="evenodd" d="M21.6836 32.5551L25.3512 27.2275L27.6436 28.5594H36.8128L39.1052 27.2275L42.773 32.5551V52.5346L40.022 56.5305L36.8128 59.6382H27.6436L24.4342 56.5305L21.6836 52.5346V32.5551Z" fill="#41B883"/>
<path d="M44.1484 53.8664L50.1084 48.0946V42.3228L44.1484 47.2066V53.8664Z" fill="#41B883"/>
<path d="M20.3078 53.8664L14.3477 48.0946V42.3228L20.3078 47.2066V53.8664Z" fill="#41B883"/>
<path fill-rule="evenodd" clip-rule="evenodd" d="M38.1886 1.47632H36.8132V10.0365L39.3364 4.11637L38.1886 1.47632ZM35.9262 12.1174L34.9794 12.5759V1.47632H33.1454V18.6416L35.9262 12.1174ZM33.1454 22.5095L40.169 6.03108L41.8564 9.91201L36.3548 26.7834H33.1454V22.5095ZM31.3116 18.7061V1.47632H29.4776V12.5759L28.7144 12.2063L31.3116 18.7061ZM27.6438 9.52725V1.47632H26.2686L25.3088 3.68351L27.6438 9.52725ZM24.4574 5.64184L31.3116 22.7953V26.7834H28.5608L22.6006 9.91201L24.4574 5.64184Z" fill="#455C71"/>
<path fill-rule="evenodd" clip-rule="evenodd" d="M8.8465 19.6797L28.5607 26.7833H29.0191L23.0591 9.91203L6.0957 8.58008L8.8465 19.6797ZM56.0687 19.6797L36.3547 26.7833H35.8961L41.3979 9.91203L58.8195 8.58008L56.0687 19.6797Z" fill="#41B883"/>
<path d="M42.7729 8.58006L52.4007 7.6921L45.9821 1.47632H39.5635L42.7729 8.58006Z" fill="#455C71"/>
<path d="M21.6834 8.58006L12.0557 7.6921L18.4742 1.47632H24.8926L21.6834 8.58006Z" fill="#455C71"/>
<path d="M13.2578 9.15259L23.1625 9.89068L29.1053 26.7932H28.4959L22.0959 24.505L13.2578 9.15259Z" fill="#455C71"/>
<path d="M51.5048 9.15259L41.2954 9.89068L35.6572 26.7932L36.4192 26.7785L42.362 24.6526L51.5048 9.15259Z" fill="#455C71"/>
<path d="M24.5332 28.343L25.2952 27.1621L27.8856 28.343H37.0284L39.0094 27.1621L39.9236 28.343L32.2284 41.0383L24.5332 28.343Z" fill="#455C71"/>
<path fill-rule="evenodd" clip-rule="evenodd" d="M24.4268 1.47632L32.1856 20.8936L40.4618 1.47632H24.4268Z" fill="#41B883"/>
</g>
</svg>
