<svg width="64" height="62" viewBox="0 0 64 62" fill="none" xmlns="http://www.w3.org/2000/svg">
<g clip-path="url(#clip0_262_1169)">
<path d="M32 0C23.4667 0 18.1333 6.871 16 20.613C19.2 13.742 22.9333 11.1654 27.2 12.8831C29.6344 13.8632 31.3743 16.7072 33.3003 19.8555C36.4377 24.9839 40.0689 30.9195 48 30.9195C56.5333 30.9195 61.8667 24.0485 64 10.3065C60.8 17.1775 57.0667 19.7541 52.8 18.0364C50.3656 17.0563 48.6257 14.2123 46.6997 11.064C43.5623 5.93559 39.9311 0 32 0ZM16 30.9195C7.46667 30.9195 2.13333 37.7905 0 51.5325C3.2 44.6615 6.93333 42.0849 11.2 43.8026C13.6344 44.7827 15.3743 47.6267 17.3003 50.7749C20.4377 55.9034 24.0689 61.839 32 61.839C40.5333 61.839 45.8667 54.968 48 41.226C44.8 48.097 41.0667 50.6736 36.8 48.9558C34.3656 47.9758 32.6257 45.1318 30.6997 41.9835C27.5623 36.8551 23.9311 30.9195 16 30.9195Z" fill="url(#paint0_linear_262_1169)"/>
</g>
<defs>
<linearGradient id="paint0_linear_262_1169" x1="-177.778" y1="1978.85" x2="6350.38" y2="4316.16" gradientUnits="userSpaceOnUse">
<stop stop-color="#2298BD"/>
<stop offset="1" stop-color="#0ED7B5"/>
</linearGradient>
<clipPath id="clip0_262_1169">
<rect width="64" height="62" fill="white"/>
</clipPath>
</defs>
</svg>
